<svg xmlns="http://www.w3.org/2000/svg" xmlns:lucid="lucid" width="122" height="132"><g transform="translate(-1024 -600)" lucid:page-tab-id="0_0"><path d="M1133.38 661.42c0 27.16-22.02 49.2-49.2 49.2-27.16 0-49.18-22.04-49.18-49.2 0-27.17 22.02-49.2 49.2-49.2 27.16 0 49.18 22.03 49.18 49.2z" stroke="#000" stroke-opacity="0" stroke-width="3" fill="url(#a)"/><path d="M1040.44 617.23h87.5v87.5h-87.5z" fill="none"/><path d="M1054 651.8v31.58h60.38v-31.6l-30.2 15.06L1054 651.8z" fill="#fff"/><path d="M1054 638.58v8.4l30.2 14.96 30.18-14.96v-8.4H1054z" fill="#fff"/><path d="M1088.8 698.97h44.58l-22.3-26.3z" stroke="#000" stroke-opacity="0" stroke-width="3" fill="url(#b)" transform="matrix(-1,1.2246467991473532e-16,-1.2246467991473532e-16,-1,2222.1889763779527,1371.6327673685155)"/><path d="M1107.94 695.34h6.3v19.64h-6.3z" stroke="#000" stroke-opacity="0" stroke-width="3" fill="url(#c)"/><path d="M1107.94 714.98v7.34h6.3z" stroke="#000" stroke-opacity="0" stroke-width="3" fill="url(#d)" transform="matrix(-1,1.2246467991473532e-16,-1.2246467991473532e-16,-1,2222.1889763779527,1437.2978426788372)"/><defs><linearGradient gradientUnits="userSpaceOnUse" id="a" x1="1133.38" y1="710.61" x2="1035" y2="710.61"><stop offset="0%" stop-color="#4d9fe7"/><stop offset="52.08%" stop-color="#277ac3"/><stop offset="100%" stop-color="#1b5689"/></linearGradient><linearGradient gradientUnits="userSpaceOnUse" id="b" x1="1088.81" y1="698.97" x2="1133.38" y2="698.97"><stop offset="0%" stop-color="#e5e5e5"/><stop offset="52%" stop-color="#999"/><stop offset="100%" stop-color="#757575"/></linearGradient><linearGradient gradientUnits="userSpaceOnUse" id="c" x1="1114.24" y1="714.98" x2="1107.94" y2="714.98"><stop offset="0%" stop-color="#e5e5e5"/><stop offset="52%" stop-color="#999"/><stop offset="100%" stop-color="#757575"/></linearGradient><linearGradient gradientUnits="userSpaceOnUse" id="d" x1="1107.94" y1="722.32" x2="1114.24" y2="722.32"><stop offset="0%" stop-color="#e5e5e5"/><stop offset="52%" stop-color="#999"/><stop offset="100%" stop-color="#757575"/></linearGradient></defs></g></svg>